<svg id="visual" viewBox="0 0 1366 768" width="1366" height="768" xmlns="http://www.w3.org/2000/svg" xmlns:xlink="http://www.w3.org/1999/xlink" version="1.1"><rect x="0" y="0" width="1366" height="768" fill="#0b238c"></rect><path d="M0 518L38 493.5C76 469 152 420 227.8 400C303.7 380 379.3 389 455.2 422.7C531 456.3 607 514.7 683 546C759 577.3 835 581.7 910.8 553.3C986.7 525 1062.3 464 1138.2 467.8C1214 471.7 1290 540.3 1328 574.7L1366 609L1366 769L1328 769C1290 769 1214 769 1138.2 769C1062.3 769 986.7 769 910.8 769C835 769 759 769 683 769C607 769 531 769 455.2 769C379.3 769 303.7 769 227.8 769C152 769 76 769 38 769L0 769Z" fill="#FFFFFF" stroke-linecap="round" stroke-linejoin="miter"></path></svg>