<svg id="visual" viewBox="0 0 375 500" width="375" height="500" xmlns="http://www.w3.org/2000/svg" xmlns:xlink="http://www.w3.org/1999/xlink" version="1.1"><rect x="0" y="0" width="375" height="500" fill="#0b238c"></rect><path d="M0 337L10.5 321C21 305 42 273 62.8 260C83.7 247 104.3 253 125.2 275C146 297 167 335 187.8 355.3C208.7 375.7 229.3 378.3 250.2 359.8C271 341.3 292 301.7 312.8 304.2C333.7 306.7 354.3 351.3 364.7 373.7L375 396L375 501L364.7 501C354.3 501 333.7 501 312.8 501C292 501 271 501 250.2 501C229.3 501 208.7 501 187.8 501C167 501 146 501 125.2 501C104.3 501 83.7 501 62.8 501C42 501 21 501 10.5 501L0 501Z" fill="#FFFFFF" stroke-linecap="round" stroke-linejoin="miter"></path></svg>