<svg id="visual" viewBox="0 0 600 500" width="600" height="500" xmlns="http://www.w3.org/2000/svg" xmlns:xlink="http://www.w3.org/1999/xlink" version="1.1"><rect x="0" y="0" width="600" height="500" fill="#0b238c"></rect><path d="M0 337L16.7 321C33.3 305 66.7 273 100 260C133.3 247 166.7 253 200 275C233.3 297 266.7 335 300 355.3C333.3 375.7 366.7 378.3 400 359.8C433.3 341.3 466.7 301.7 500 304.2C533.3 306.7 566.7 351.3 583.3 373.7L600 396L600 501L583.3 501C566.7 501 533.3 501 500 501C466.7 501 433.3 501 400 501C366.7 501 333.3 501 300 501C266.7 501 233.3 501 200 501C166.7 501 133.3 501 100 501C66.7 501 33.3 501 16.7 501L0 501Z" fill="#FFFFFF" stroke-linecap="round" stroke-linejoin="miter"></path></svg>